After rescuing Han Solo from the palace of Jabba the Hutt, the Rebels attempt to destroy the Second Death Star, while Luke Skywalker tries to bring his father back to the Light Side of the Force.

Director:
Richard Marquand
Writers:
Lawrence Kasdan (screenplay), George Lucas (screenplay), and 1 more credit »
Stars:
Mark Hamill, Harrison Ford and Carrie Fisher 

Media info:

General
Complete name                    : E:\torrent2\Star.Wars.Episode.6.Return.of.the.Jedi.1983.BluRayrip.mkv.1080p.AVC.DTS-5.1-ACB-Team\Star.Wars.Episode.VI.Return.of.the.Jedi.1983.BluRayrip.mkv.1080p.AVC.DTS-5.1-ACB-Team.mkv
Format                           : Matroska
File size                        : 13.4 GiB
Duration                         : 2h 14mn
Overall bit rate                 : 14.2 Mbps
Movie name                       : movie
Encoded date                     : UTC 2011-09-21 03:28:26
Writing application              : mkvmerge v3.2.0 ('Beginnings') built on Feb 12 2010 16:46:17
Writing library                  : libebml v0.7.9 + libmatroska v0.8.1

Video
ID                               : 1
Format                           : AVC
Format/Info                      : Advanced Video Codec
Format profile                   : High@L4.1
Format settings, CABAC           : Yes
Format settings, ReFrames        : 2 frames
Format settings, GOP             : M=4, N=16
Muxing mode                      : Container profile=Unknown@0.0
Codec ID                         : V_MPEG4/ISO/AVC
Duration                         : 2h 14mn
Bit rate mode                    : Variable
Bit rate                         : 12.8 Mbps
Maximum bit rate                 : 35.0 Mbps
Width                            : 1 920 pixels
Height                           : 1 080 pixels
Display aspect ratio             : 16:9
Frame rate                       : 23.976 fps
Color space                      : YUV
Chroma subsampling               : 4:2:0
Bit depth                        : 8 bits
Scan type                        : Progressive
Bits/(Pixel*Frame)               : 0.256
Stream size                      : 11.7 GiB (87%)
Writing library                  : x264 core 116 r2057 0ba8a9c
Encoding settings                : cabac=1 / ref=1 / deblock=1:0:0 / analyse=0x3:0x3 / me=dia / subme=1 / psy=1 / psy_rd=1.00:0.00 / mixed_ref=0 / me_range=16 / chroma_me=1 / trellis=0 / 8x8dct=1 / cqm=0 / deadzone=21,11 / fast_pskip=1 / chroma_qp_offset=0 / threads=3 / sliced_threads=0 / slices=4 / nr=0 / decimate=1 / interlaced=0 / bluray_compat=1 / constrained_intra=0 / bframes=3 / b_pyramid=0 / b_adapt=1 / b_bias=0 / direct=1 / weightb=1 / open_gop=0 / weightp=1 / keyint=24 / keyint_min=1 / scenecut=40 / intra_refresh=0 / rc_lookahead=0 / rc=abr / mbtree=0 / bitrate=12752 / ratetol=1.0 / qcomp=0.60 / qpmin=0 / qpmax=69 / qpstep=4 / vbv_maxrate=35000 / vbv_bufsize=30000 / nal_hrd=vbr / ip_ratio=1.10 / pb_ratio=1.10 / aq=1:1.00

Audio
ID                               : 2
Format                           : DTS
Format/Info                      : Digital Theater Systems
Format profile                   : ES
Codec ID                         : A_DTS
Duration                         : 2h 14mn
Bit rate mode                    : Constant
Bit rate                         : 1 510 Kbps
Channel(s)                       : 7 channels
Channel positions                : Front: L C R, Side: L R, Back: C, LFE
Sampling rate                    : 48.0 KHz
Bit depth                        : 24 bits
Stream size                      : 1.42 GiB (11%)
Language                         : English

Text #1
ID                               : 3
Format                           : VobSub
Muxing mode                      : zlib
Codec ID                         : S_VOBSUB
Codec ID/Info                    : The same subtitle format used on DVDs
Language                         : English

Text #2
ID                               : 4
Format                           : VobSub
Muxing mode                      : zlib
Codec ID                         : S_VOBSUB
Codec ID/Info                    : The same subtitle format used on DVDs
Language                         : Japanese

Text #3
ID                               : 5
Format                           : VobSub
Muxing mode                      : zlib
Codec ID                         : S_VOBSUB
Codec ID/Info                    : The same subtitle format used on DVDs
Language                         : Chinese

Text #4
ID                               : 6
Format                           : VobSub
Muxing mode                      : zlib
Codec ID                         : S_VOBSUB
Codec ID/Info                    : The same subtitle format used on DVDs
Language                         : Korean

Text #5
ID                               : 7
Format                           : VobSub
Muxing mode                      : zlib
Codec ID                         : S_VOBSUB
Codec ID/Info                    : The same subtitle format used on DVDs
Language                         : Thai

Text #6
ID                               : 8
Format                           : UTF-8
Codec ID                         : S_TEXT/UTF8
Codec ID/Info                    : UTF-8 Plain Text
Language                         : Dutch

Menu
00:00:00.000                     : en:00:00:00.000
00:00:21.187                     : en:00:00:21.187
00:01:55.114                     : en:00:01:55.114
00:04:58.464                     : en:00:04:58.464
00:08:10.907                     : en:00:08:10.907
00:12:21.907                     : en:00:12:21.907
00:14:22.027                     : en:00:14:22.027
00:17:36.013                     : en:00:17:36.013
00:22:10.037                     : en:00:22:10.037
00:25:08.340                     : en:00:25:08.340
00:29:37.358                     : en:00:29:37.358
00:31:29.012                     : en:00:31:29.012
00:37:44.470                     : en:00:37:44.470
00:39:32.244                     : en:00:39:32.244
00:45:17.423                     : en:00:45:17.423
00:48:23.400                     : en:00:48:23.400
00:51:36.009                     : en:00:51:36.009
00:53:32.667                     : en:00:53:32.667
00:54:25.095                     : en:00:54:25.095
00:56:55.245                     : en:00:56:55.245
00:58:43.811                     : en:00:58:43.811
01:02:41.716                     : en:01:02:41.716
01:06:19.266                     : en:01:06:19.266
01:07:47.480                     : en:01:07:47.480
01:12:01.108                     : en:01:12:01.108
01:15:52.673                     : en:01:15:52.673
01:18:14.815                     : en:01:18:14.815
01:22:30.403                     : en:01:22:30.403
01:26:06.870                     : en:01:26:06.870
01:26:52.081                     : en:01:26:52.081
01:27:50.890                     : en:01:27:50.890
01:30:04.524                     : en:01:30:04.524
01:33:19.135                     : en:01:33:19.135
01:36:41.420                     : en:01:36:41.420
01:40:25.185                     : en:01:40:25.185
01:42:23.178                     : en:01:42:23.178
01:44:27.803                     : en:01:44:27.803
01:45:26.945                     : en:01:45:26.945
01:48:42.432                     : en:01:48:42.432
01:50:40.634                     : en:01:50:40.634
01:51:37.107                     : en:01:51:37.107
01:54:37.120                     : en:01:54:37.120
01:55:07.859                     : en:01:55:07.859
01:55:57.492                     : en:01:55:57.492
01:57:40.178                     : en:01:57:40.178
01:59:34.167                     : en:01:59:34.167
02:01:58.853                     : en:02:01:58.853
02:04:50.566                     : en:02:04:50.566
02:05:27.436                     : en:02:05:27.436
02:07:56.043                     : en:02:07:56.043

